<svg width="90" height="90" viewBox="0 0 90 90" fill="none" xmlns="http://www.w3.org/2000/svg">
<g clip-path="url(#clip0_129_179)">
<rect width="90" height="90" rx="45" fill="#EBC5DC"/>
<g clip-path="url(#clip1_129_179)">
<path d="M27.9695 69.2365C23.394 71.9793 11.3976 77.5822 18.7054 84.5955C22.272 88.0191 25.6694 90.4687 30.4119 92.6403C30.4119 92.6403 39.5193 95.6806 45.5017 95.6806C51.484 95.6806 60.1603 92.6403 60.1603 92.6403C64.9028 90.4687 68.7281 88.0191 72.2946 84.5955C79.6024 77.5822 67.606 71.9793 63.0306 69.2365C57.7205 66.0763 51.6659 64.4093 45.4984 64.4093C39.3309 64.4093 33.2796 66.0763 27.9695 69.2365ZM60.0525 39.978C60.0525 43.8657 58.5195 47.5942 55.7907 50.3432C53.0618 53.0922 49.3608 54.6366 45.5016 54.6366C41.6425 54.6366 37.9414 53.0922 35.2126 50.3432C32.4838 47.5942 30.9508 43.8657 30.9508 39.978C30.9508 36.0903 32.4838 32.3618 35.2126 29.6128C37.9414 26.8638 41.6425 25.3194 45.5016 25.3194C49.3608 25.3194 53.0618 26.8638 55.7907 29.6128C58.5195 32.3618 60.0525 36.0903 60.0525 39.978Z" stroke="#3F3D3D" stroke-width="2" stroke-linecap="round" stroke-linejoin="round"/>
</g>
</g>
<defs>
<clipPath id="clip0_129_179">
<rect width="90" height="90" rx="45" fill="white"/>
</clipPath>
<clipPath id="clip1_129_179">
<rect width="97" height="97" fill="white" transform="translate(-3 -6)"/>
</clipPath>
</defs>
</svg>
